{"title":"Transporter 2.dual audio(HINDI)DVDRip.aaaevilacharya","uid":5852417,"size":694649530,"categoryP":"video","categoryS":"movies","magnet":"?xt=urn:btih:5ed055594e499c3d6c3f3a8f46bbf79ac7cd5a55&amp;dn=Transporter+2.dual+audio%28HINDI%29DVDRip.aaaevilacharya&amp;tr=udp%3A%2F%2Ftracker.openbittorrent.com%3A80&amp;tr=udp%3A%2F%2Fopen.demonii.com%3A1337&amp;tr=udp%3A%2F%2Ftracker.coppersurfer.tk%3A6969&amp;tr=udp%3A%2F%2Fexodus.desync.com%3A6969","seeders":1,"leechers":0,"uploader":"achaevil","files":1,"time":1285444454,"description":"General\nComplete name : Transporter 2.dual audio(HINDI)DVDRip.aaaevilacharya\nFormat : Matroska\nFile size : 662 MiB\nDuration : 1h 17mn\nOverall bit rate : 1 192 Kbps\nEncoded date : UTC 2010-09-26 03:31:35\nWriting library : libebml v0.7.7 + libmatroska v0.8.1\n\nVideo\nID : 1\nFormat : MPEG-4 Visual\nFormat profile : Simple@L1\nFormat settings, BVOP : No\nFormat settings, QPel : No\nFormat settings, GMC : No warppoints\nFormat settings, Matrix : Default (H.263)\nCodec ID : DX50\nCodec ID/Hint : DivX 5\nDuration : 1h 17mn\nBit rate : 912 Kbps\nWidth : 720 pixels\nHeight : 292 pixels\nDisplay aspect ratio : 2.466\nFrame rate : 25.000 fps\nColor space : YUV\nChroma subsampling : 4:2:0\nBit depth : 8 bits\nScan type : Interlaced\nScan order : Top Field First\nBits/(Pixel*Frame) : 0.174\nStream size : 507 MiB (77%)\nTitle : aaaevilacharya\nWriting library : Lavc52.30.1\nLanguage : Hindi\n\nAudio #1\nID : 2\nFormat : MPEG Audio\nFormat version : Version 1\nFormat profile : Layer 3\nMode : Joint stereo\nMode extension : MS Stereo\nCodec ID : A_MPEG/L3\nCodec ID/Hint : MP3\nDuration : 1h 17mn\nBit rate mode : Constant\nBit rate : 128 Kbps\nChannel(s) : 2 channels\nSampling rate : 48.0 KHz\nStream size : 71.1 MiB (11%)\nTitle : evil hindi\nLanguage : Hindi\n\nAudio #2\nID : 3\nFormat : MPEG Audio\nFormat version : Version 1\nFormat profile : Layer 3\nMode : Joint stereo\nMode extension : MS Stereo\nCodec ID : A_MPEG/L3\nCodec ID/Hint : MP3\nDuration : 1h 17mn\nBit rate mode : Constant\nBit rate : 128 Kbps\nChannel(s) : 2 channels\nSampling rate : 48.0 KHz\nStream size : 71.1 MiB (11%)\nTitle : evil eng\nLanguage : English\n","torrent":{"xt":"urn:btih:5ed055594e499c3d6c3f3a8f46bbf79ac7cd5a55","amp;dn":"Transporter+2.dual+audio%28HINDI%29DVDRip.aaaevilacharya","amp;tr":["udp%3A%2F%2Ftracker.openbittorrent.com%3A80","udp%3A%2F%2Fopen.demonii.com%3A1337","udp%3A%2F%2Ftracker.coppersurfer.tk%3A6969","udp%3A%2F%2Fexodus.desync.com%3A6969"],"infoHash":"5ed055594e499c3d6c3f3a8f46bbf79ac7cd5a55","infoHashBuffer":{"type":"Buffer","data":[94,208,85,89,78,73,156,61,108,63,58,143,70,187,247,154,199,205,90,85]},"announce":[],"urlList":[]}}